<svg viewBox="0 0 190 103" fill="none" xmlns="http://www.w3.org/2000/svg">
<path d="M114.929 42.7916L91.7477 33.7603L84.7041 8.6145L108.599 17.9114L114.929 42.7916Z" stroke="white" stroke-width="2" stroke-miterlimit="10" stroke-linecap="round" stroke-linejoin="round"/>
<path d="M84.7041 8.61458L126.52 1.00001L114.929 42.7916" stroke="white" stroke-width="2" stroke-miterlimit="10" stroke-linecap="round" stroke-linejoin="round"/>
<path d="M91.7471 33.7604L108.598 17.9115L126.519 1.00001" stroke="white" stroke-width="0.5" stroke-miterlimit="10" stroke-linecap="round" stroke-linejoin="round"/>
<path d="M74.9844 18.6196L98.2551 27.6509L105.299 52.8853L81.3147 43.5884L74.9844 18.6196Z" stroke="white" stroke-width="2" stroke-miterlimit="10" stroke-linecap="round" stroke-linejoin="round"/>
<path d="M105.299 52.8856L63.4834 60.5002L74.985 18.62" stroke="white" stroke-width="2" stroke-miterlimit="10" stroke-linecap="round" stroke-linejoin="round"/>
<path d="M98.2557 27.651L81.3154 43.5885L63.4834 60.4999" stroke="white" stroke-width="0.5" stroke-miterlimit="10" stroke-linecap="round" stroke-linejoin="round"/>
<path d="M0.0896481 102.646C0.000488281 102.557 0.000482839 102.469 0.000482839 102.38V90.6927C0.000482839 90.6042 0.000488281 90.4271 0.0896481 90.3385C0.178808 90.25 0.267957 90.25 0.357117 90.25H7.66823C7.75739 90.25 7.9357 90.25 8.02486 90.3385C8.11402 90.4271 8.11403 90.5156 8.11403 90.6927V91.3125C8.11403 91.401 8.11402 91.4896 8.02486 91.5781C7.9357 91.6667 7.84655 91.6667 7.66823 91.6667H1.60538V95.9167H7.3116C7.40076 95.9167 7.57907 95.9167 7.66823 96.0052C7.75739 96.0937 7.7574 96.1823 7.7574 96.2708V96.9792C7.7574 97.0677 7.75739 97.1562 7.66823 97.2448C7.57907 97.3333 7.48992 97.3333 7.40076 97.3333H1.69451V102.203C1.69451 102.292 1.69454 102.38 1.60538 102.469C1.51622 102.557 1.42704 102.557 1.33788 102.557H0.535447C0.267968 102.823 0.178808 102.734 0.0896481 102.646Z" fill="white"/>
<path d="M24.9642 102.646C24.875 102.557 24.875 102.469 24.875 102.38V90.6927C24.875 90.6042 24.875 90.4271 24.9642 90.3385C25.0533 90.25 25.1425 90.25 25.2317 90.25H29.6005C30.9379 90.25 32.0078 90.6042 32.8102 91.224C33.6127 91.8437 33.9693 92.8177 33.9693 93.9688C33.9693 94.8542 33.7018 95.651 33.256 96.1823C32.8102 96.8021 32.1861 97.1562 31.3837 97.4219L34.1476 102.203C34.1476 102.292 34.2368 102.38 34.2368 102.38C34.2368 102.469 34.2368 102.557 34.1476 102.646C34.0585 102.734 33.9693 102.734 33.8801 102.734H33.0777C32.8994 102.734 32.7211 102.734 32.6319 102.646C32.5427 102.557 32.4536 102.469 32.3644 102.292L29.6896 97.6875H26.4799V102.38C26.4799 102.469 26.4799 102.557 26.3907 102.646C26.3016 102.734 26.2124 102.734 26.1232 102.734H25.2317C25.1425 102.823 25.0533 102.734 24.9642 102.646ZM29.6005 96.2708C31.3837 96.2708 32.3644 95.474 32.3644 93.9688C32.3644 92.4635 31.4728 91.6667 29.6005 91.6667H26.569V96.1823H29.6005V96.2708Z" fill="white"/>
<path d="M78.105 101.672C77.3025 100.786 76.8567 99.6354 76.7676 98.1302C76.7676 97.776 76.7676 97.2447 76.7676 96.5364C76.7676 95.8281 76.7676 95.2968 76.7676 94.9427C76.8567 93.4375 77.3025 92.2864 78.105 91.401C78.9074 90.5156 80.1557 90.0729 81.7605 90.0729C82.8304 90.0729 83.722 90.2499 84.4353 90.6041C85.1486 90.9583 85.7727 91.4895 86.1294 92.1093C86.486 92.7291 86.7535 93.3489 86.7535 94.0573C86.7535 94.1458 86.7535 94.2343 86.6643 94.3229C86.5752 94.4114 86.486 94.4114 86.3968 94.4114H85.5052C85.4161 94.4114 85.3269 94.4114 85.2378 94.3229C85.1486 94.2343 85.1486 94.1458 85.0594 94.0573C84.8811 93.1718 84.5245 92.4635 83.9895 92.1093C83.4546 91.7552 82.7413 91.5781 81.8497 91.5781C79.799 91.5781 78.6399 92.7291 78.5508 95.0312C78.5508 95.3854 78.5508 95.8281 78.5508 96.5364C78.5508 97.2447 78.5508 97.6875 78.5508 98.0416C78.6399 100.344 79.7099 101.495 81.8497 101.495C82.7413 101.495 83.4546 101.318 83.9895 100.963C84.5245 100.609 84.8811 99.9895 85.1486 99.0156C85.1486 98.8385 85.2378 98.75 85.3269 98.75C85.4161 98.6614 85.5052 98.6614 85.5944 98.6614H86.486C86.5751 98.6614 86.6643 98.6614 86.7535 98.75C86.8426 98.8385 86.8426 98.927 86.8426 99.0156C86.8426 99.7239 86.5752 100.344 86.2185 100.963C85.8619 101.583 85.2378 102.026 84.5245 102.469C83.8112 102.823 82.8305 103 81.8497 103C80.1557 103 78.9966 102.557 78.105 101.672Z" fill="white"/>
<path d="M106.546 102.646C106.457 102.557 106.457 102.469 106.457 102.38V91.8437H102.98C102.891 91.8437 102.801 91.8437 102.712 91.7552C102.623 91.6666 102.623 91.5781 102.623 91.4895V90.7812C102.623 90.6927 102.623 90.5156 102.712 90.427C102.801 90.3385 102.891 90.3385 102.98 90.3385H111.628C111.717 90.3385 111.896 90.3385 111.896 90.427C111.985 90.5156 111.985 90.6041 111.985 90.7812V91.4895C111.985 91.5781 111.985 91.6666 111.896 91.7552C111.807 91.8437 111.717 91.8437 111.628 91.8437H108.151V102.38C108.151 102.469 108.151 102.557 108.062 102.646C107.973 102.734 107.883 102.734 107.794 102.734H106.903C106.724 102.823 106.635 102.734 106.546 102.646Z" fill="white"/>
<path d="M129.104 101.76C128.212 100.963 127.767 99.7239 127.767 98.0416C127.767 97.6875 127.767 97.1562 127.767 96.5364C127.767 95.9166 127.767 95.3854 127.767 95.0312C127.856 93.4374 128.302 92.1979 129.193 91.3125C130.085 90.5156 131.244 90.0729 132.76 90.0729C134.275 90.0729 135.434 90.5156 136.326 91.3125C137.218 92.1093 137.663 93.3489 137.752 95.0312C137.752 95.7395 137.752 96.1822 137.752 96.5364C137.752 96.802 137.752 97.3333 137.752 98.0416C137.663 99.7239 137.218 100.875 136.415 101.76C135.613 102.557 134.364 103 132.849 103C131.155 103 129.906 102.557 129.104 101.76ZM134.989 100.609C135.523 99.9895 135.88 99.1041 135.969 97.9531C135.969 97.2448 135.969 96.802 135.969 96.5364C135.969 96.2708 135.969 95.8281 135.969 95.1197C135.88 93.9687 135.613 93.0833 134.989 92.4635C134.454 91.8437 133.651 91.5781 132.67 91.5781C131.69 91.5781 130.976 91.8437 130.352 92.4635C129.728 93.0833 129.461 93.9687 129.461 95.1197C129.461 95.4739 129.461 95.9166 129.461 96.5364C129.461 97.1562 129.461 97.5989 129.461 97.9531C129.461 99.1041 129.817 99.9895 130.352 100.609C130.887 101.229 131.69 101.495 132.67 101.495C133.651 101.495 134.454 101.229 134.989 100.609Z" fill="white"/>
<path d="M154.87 102.646C154.781 102.557 154.781 102.469 154.781 102.38V90.6927C154.781 90.6042 154.781 90.4271 154.87 90.3385C154.96 90.25 155.049 90.25 155.138 90.25H159.507C160.844 90.25 161.914 90.6042 162.716 91.224C163.519 91.8437 163.876 92.8177 163.876 93.9688C163.876 94.8542 163.608 95.651 163.162 96.1823C162.716 96.8021 162.092 97.1562 161.29 97.4219L164.054 102.203C164.054 102.292 164.143 102.38 164.143 102.38C164.143 102.469 164.143 102.557 164.054 102.646C163.965 102.734 163.876 102.734 163.786 102.734H162.984C162.806 102.734 162.627 102.734 162.538 102.646C162.449 102.557 162.36 102.469 162.271 102.292L159.596 97.6875H156.386V102.38C156.386 102.469 156.386 102.557 156.297 102.646C156.208 102.734 156.119 102.734 156.029 102.734H155.138C155.049 102.823 154.96 102.734 154.87 102.646ZM159.507 96.2708C161.29 96.2708 162.271 95.474 162.271 93.9688C162.271 92.4635 161.379 91.6667 159.507 91.6667H156.475V96.1823H159.507V96.2708Z" fill="white"/>
<path d="M184.027 102.646C183.937 102.557 183.937 102.469 183.937 102.38V98.1302L179.569 90.8698C179.569 90.7813 179.48 90.6927 179.48 90.6042C179.48 90.5156 179.479 90.4271 179.569 90.3385C179.658 90.25 179.747 90.25 179.836 90.25H180.728C180.906 90.25 181.084 90.3386 181.174 90.5156L184.74 96.3594L188.306 90.5156C188.395 90.3386 188.574 90.25 188.752 90.25H189.644C189.733 90.25 189.822 90.25 189.911 90.3385C190 90.4271 190 90.5156 190 90.6042C190 90.6927 190 90.7813 189.911 90.8698L185.542 98.1302V102.38C185.542 102.469 185.542 102.557 185.453 102.646C185.364 102.734 185.275 102.734 185.097 102.734H184.205C184.205 102.823 184.027 102.734 184.027 102.646Z" fill="white"/>
<path d="M59.4698 102.469C59.4698 102.557 59.5589 102.646 59.6481 102.646C59.7373 102.734 59.8264 102.734 59.9156 102.734H60.718C60.8072 102.734 60.8963 102.734 60.9855 102.646C61.0747 102.557 61.0747 102.469 61.0747 102.38V102.203L56.6167 90.6042C56.5275 90.3385 56.3492 90.25 56.0817 90.25H54.9226C54.6552 90.25 54.4768 90.3385 54.3877 90.6042L49.9297 102.203V102.38C49.9297 102.469 49.9297 102.557 50.0189 102.646C50.108 102.734 50.1972 102.734 50.2863 102.734H51.1779C51.3562 102.734 51.5346 102.646 51.6237 102.469L55.6359 92.0208L59.4698 102.469Z" fill="#F9BC41"/>
</svg>
