<?xml version="1.0" standalone="no"?>
<!DOCTYPE svg PUBLIC "-//W3C//DTD SVG 20010904//EN"
 "http://www.w3.org/TR/2001/REC-SVG-20010904/DTD/svg10.dtd">
<svg version="1.0" xmlns="http://www.w3.org/2000/svg"
 width="601.000000pt" height="601.000000pt" viewBox="0 0 601.000000 601.000000"
 preserveAspectRatio="xMidYMid meet">
<metadata>
Created by potrace 1.11, written by Peter Selinger 2001-2013
</metadata>
<g transform="translate(0.000000,601.000000) scale(0.100000,-0.100000)"
fill="#000000" stroke="none">
<path d="M5847 5850 c-15 -5 -49 -11 -75 -15 -26 -3 -54 -8 -62 -10 -8 -2 -26
-6 -40 -9 -28 -5 -95 -17 -125 -22 -11 -3 -85 -16 -164 -30 -80 -14 -147 -27
-150 -29 -3 -1 -28 -6 -56 -9 -27 -4 -81 -13 -120 -21 -102 -20 -285 -54 -325
-60 -19 -3 -55 -9 -80 -15 -40 -8 -181 -35 -250 -46 -14 -2 -36 -7 -50 -9 -14
-3 -37 -8 -53 -10 -15 -3 -54 -10 -87 -15 -33 -6 -72 -13 -87 -16 -16 -2 -48
-9 -73 -14 -40 -8 -71 -14 -195 -35 -16 -3 -64 -12 -105 -20 -41 -8 -88 -17
-105 -19 -26 -5 -434 -79 -490 -90 -11 -2 -47 -9 -80 -15 -33 -6 -71 -13 -85
-16 -14 -3 -45 -8 -70 -11 -25 -3 -47 -7 -50 -9 -3 -2 -95 -19 -205 -39 -203
-37 -231 -42 -275 -51 -14 -2 -41 -7 -60 -10 -19 -3 -46 -8 -60 -10 -14 -3
-36 -8 -50 -10 -14 -3 -64 -12 -112 -20 -161 -26 -163 -32 -92 -279 29 -100
73 -257 99 -351 55 -198 180 -649 200 -717 8 -27 11 -48 7 -48 -8 0 -195 73
-757 296 -203 80 -384 149 -401 151 -23 4 -38 -1 -57 -19 -22 -19 -37 -65 -97
-288 -39 -146 -76 -278 -81 -295 -5 -16 -21 -73 -34 -125 -14 -52 -32 -117
-40 -145 -8 -27 -51 -183 -96 -345 -44 -162 -157 -574 -250 -915 -94 -341
-240 -874 -325 -1185 -85 -311 -161 -586 -169 -613 -8 -26 -14 -50 -15 -52 -2
-19 34 -65 59 -73 16 -6 31 -9 33 -7 1 1 19 5 38 8 19 3 87 15 150 27 63 12
124 23 135 25 11 1 34 5 50 8 17 4 68 13 115 21 141 25 254 46 280 51 14 3 52
10 85 16 33 5 155 28 270 49 116 22 226 42 245 45 19 3 94 17 165 30 72 13
144 26 160 29 17 3 165 31 330 61 303 57 381 71 445 81 19 3 51 9 70 14 19 5
53 11 75 15 68 10 97 15 175 30 41 8 86 16 100 19 14 2 52 9 85 15 33 6 69 13
80 15 11 2 38 7 60 11 22 4 49 9 60 11 11 1 67 12 125 23 58 11 182 34 275 50
94 17 181 33 195 36 14 3 48 8 75 11 28 4 60 12 72 20 47 30 44 57 -38 348
-42 149 -102 363 -134 476 -31 113 -70 252 -87 310 -16 58 -31 112 -33 121 -2
8 -10 39 -19 67 -8 29 -13 52 -12 52 2 0 125 -47 272 -105 757 -297 881 -345
905 -345 34 0 66 32 78 78 5 20 24 89 41 152 17 63 33 122 35 130 2 8 29 107
60 218 31 112 58 211 60 220 2 10 27 98 54 197 28 99 53 189 56 200 2 11 58
216 124 455 66 239 169 615 230 835 60 220 139 508 176 640 37 132 68 247 70
256 2 9 17 65 34 125 137 487 140 505 93 540 -19 15 -82 17 -125 4z m-183
-288 c-116 -112 -393 -376 -454 -433 -19 -18 -116 -109 -215 -203 -98 -94
-229 -218 -289 -276 -61 -58 -147 -139 -191 -182 -171 -163 -198 -188 -206
-188 -5 0 -198 75 -431 166 -233 92 -442 174 -466 183 -290 110 -1042 407
-1042 412 0 3 6 6 13 6 6 0 28 4 47 7 19 4 73 14 120 22 47 9 94 18 105 20 19
4 211 38 265 48 14 2 66 12 115 21 50 10 99 19 110 21 11 2 30 5 41 8 12 2 37
7 55 10 43 7 135 24 174 31 17 3 55 10 85 15 30 6 66 12 80 15 14 3 41 8 60
11 19 3 43 7 53 10 10 3 32 7 50 10 17 2 66 10 107 19 41 8 91 17 110 21 19 3
69 12 110 19 41 8 212 39 380 69 168 31 316 58 330 61 14 3 39 8 55 11 31 5
267 49 320 58 17 3 68 13 115 21 47 8 96 17 110 20 14 3 50 9 80 15 30 5 69
12 85 15 17 3 68 13 115 21 47 9 87 17 89 20 2 2 9 4 15 4 6 -1 -39 -49 -100
-108z m52 -223 c-41 -151 -96 -348 -121 -439 -25 -91 -48 -173 -50 -183 -2
-10 -7 -27 -10 -37 -3 -10 -8 -27 -10 -37 -2 -10 -32 -117 -65 -238 -34 -121
-88 -317 -120 -435 -82 -302 -274 -1000 -300 -1090 -12 -41 -22 -79 -23 -85
-11 -50 -162 -585 -164 -578 -4 14 -224 887 -229 908 -2 11 -67 268 -143 570
l-140 550 82 78 c191 183 282 270 427 407 84 80 174 165 200 190 26 25 121
115 210 200 90 85 209 198 264 251 56 53 137 130 181 172 44 42 81 74 83 73 1
-2 -31 -127 -72 -277z m-2940 -640 c324 -128 609 -239 634 -249 51 -19 663
-260 727 -286 41 -16 42 -18 24 -33 -10 -9 -87 -81 -171 -161 -84 -80 -166
-158 -184 -174 -17 -17 -103 -98 -191 -182 -88 -84 -183 -174 -212 -202 l-52
-49 -138 55 c-76 30 -262 103 -413 162 l-274 107 -22 74 c-32 107 -324 1155
-324 1163 0 3 2 6 4 6 2 0 268 -104 592 -231z m1499 -866 c38 -153 70 -282 71
-288 1 -5 12 -45 24 -87 11 -43 23 -85 25 -95 5 -29 275 -1105 285 -1138 18
-58 51 -198 48 -201 -2 -1 -212 79 -468 180 -256 100 -503 197 -550 215 l-85
34 -68 241 c-38 132 -70 249 -72 259 -2 10 -27 99 -56 199 l-51 181 65 61
c127 119 465 440 662 629 50 48 92 87 95 87 3 0 36 -125 75 -277z m-2285 -113
c416 -163 392 -151 406 -195 7 -22 63 -220 124 -440 l112 -400 -89 -85 c-49
-47 -160 -152 -248 -235 -87 -82 -204 -193 -259 -247 -56 -53 -130 -123 -166
-156 l-65 -60 -18 76 c-10 42 -20 84 -22 92 -2 8 -29 114 -60 235 -31 121 -57
227 -59 235 -2 8 -12 44 -21 80 -9 36 -18 72 -20 80 -2 8 -75 302 -164 653
-89 351 -161 640 -161 642 0 1 129 -48 288 -110 158 -62 348 -136 422 -165z
m-600 -845 c128 -506 243 -960 256 -1010 l24 -90 -103 -100 c-107 -104 -426
-408 -481 -459 -17 -16 -110 -105 -206 -196 -96 -92 -197 -188 -225 -214 -215
-205 -355 -337 -393 -374 -53 -51 -56 -72 28 228 34 124 66 239 70 255 4 17
35 129 68 250 34 121 99 360 146 530 47 171 115 418 151 550 37 132 68 247 70
255 2 8 64 236 138 505 75 270 152 551 172 625 47 173 46 172 50 168 2 -2 108
-417 235 -923z m1505 490 c165 -64 303 -120 308 -124 4 -4 -55 -66 -130 -138
-76 -72 -174 -164 -218 -206 -44 -42 -83 -73 -86 -69 -6 6 -73 230 -84 282 -4
17 -93 335 -101 364 -4 10 -2 16 2 13 5 -2 144 -57 309 -122z m439 -488 c49
-177 91 -327 93 -334 5 -12 -31 -7 -52 7 -5 3 -32 15 -60 25 -27 9 -63 23 -80
30 -16 8 -113 46 -215 86 -250 97 -231 85 -184 126 43 39 371 351 388 370 6 7
13 12 16 13 3 0 45 -145 94 -323z m-397 -332 c147 -58 277 -109 288 -114 11
-5 74 -30 141 -56 l121 -46 92 -327 c51 -180 94 -336 97 -347 2 -11 29 -108
60 -215 57 -200 62 -219 70 -257 2 -12 9 -34 14 -48 16 -43 13 -57 -10 -45
-11 6 -111 46 -222 90 -112 43 -313 122 -448 175 -264 104 -436 171 -625 245
-554 216 -671 263 -675 267 -2 2 29 36 70 75 41 39 123 116 181 172 58 55 173
165 255 242 82 78 185 176 229 217 44 42 83 77 87 77 3 0 127 -47 275 -105z
m-944 -919 c161 -63 380 -148 487 -190 107 -42 204 -81 215 -86 11 -5 144 -57
295 -115 422 -164 602 -235 632 -249 26 -12 24 -13 -50 -26 -128 -22 -355 -64
-437 -80 -27 -5 -77 -14 -110 -20 -33 -5 -69 -12 -80 -14 -11 -2 -135 -25
-275 -50 -140 -26 -313 -58 -385 -71 -213 -40 -348 -64 -470 -85 -33 -6 -80
-15 -105 -20 -25 -5 -61 -12 -80 -15 -36 -6 -445 -81 -490 -90 -32 -7 -72 -14
-112 -20 -18 -3 -44 -8 -58 -10 -14 -3 -36 -7 -50 -10 -14 -3 -36 -7 -50 -10
-14 -2 -41 -7 -60 -10 -19 -3 -46 -8 -60 -10 -14 -3 -36 -7 -50 -10 -14 -3
-47 -9 -75 -15 -27 -5 -66 -12 -85 -15 -65 -11 -246 -44 -276 -50 -33 -8 -48
-23 260 269 93 89 192 184 221 211 29 28 121 115 205 195 342 325 519 492 640
609 58 55 106 100 108 101 2 0 135 -51 295 -114z"/>
</g>
</svg>
